<svg width="103" height="80" viewBox="0 0 103 80" fill="none" xmlns="http://www.w3.org/2000/svg">
<rect opacity="0.5" x="1.60635" y="1.0588" width="99.9827" height="77.5477" rx="3.7977" stroke="#F0F0F0" stroke-width="1.89885"/>
<path d="M62.9862 44.5981C64.1943 44.5981 65.353 45.0885 66.2073 45.9614C67.0616 46.8343 67.5416 48.0183 67.5416 49.2527V63.2165C67.5416 64.451 67.0616 65.6349 66.2073 66.5078C65.353 67.3807 64.1943 67.8711 62.9862 67.8711H40.2092C39.001 67.8711 37.8424 67.3807 36.9881 66.5078C36.1338 65.6349 35.6538 64.451 35.6538 63.2165V49.2527C35.6538 48.0183 36.1338 46.8343 36.9881 45.9614C37.8424 45.0885 39.001 44.5981 40.2092 44.5981V32.9617C40.2092 29.8755 41.4091 26.9157 43.5448 24.7334C45.6806 22.5512 48.5773 21.3252 51.5977 21.3252C54.6181 21.3252 57.5148 22.5512 59.6506 24.7334C61.7863 26.9157 62.9862 29.8755 62.9862 32.9617V44.5981ZM51.5977 60.8892C52.8059 60.8892 53.9645 60.3988 54.8188 59.5259C55.6731 58.653 56.1531 57.4691 56.1531 56.2346C56.1531 55.0001 55.6731 53.8162 54.8188 52.9433C53.9645 52.0704 52.8059 51.58 51.5977 51.58C50.3895 51.58 49.2308 52.0704 48.3765 52.9433C47.5222 53.8162 47.0423 55.0001 47.0423 56.2346C47.0423 57.4691 47.5222 58.653 48.3765 59.5259C49.2308 60.3988 50.3895 60.8892 51.5977 60.8892ZM58.4308 44.5981V32.9617C58.4308 31.11 57.7109 29.3341 56.4294 28.0247C55.148 26.7154 53.4099 25.9798 51.5977 25.9798C49.7854 25.9798 48.0474 26.7154 46.766 28.0247C45.4845 29.3341 44.7646 31.11 44.7646 32.9617V44.5981H58.4308Z" fill="url(#paint0_linear)"/>
<rect opacity="0.5" x="21.5493" y="8.15186" width="60.7536" height="58.4305" fill="white"/>
<defs>
<linearGradient id="paint0_linear" x1="51.5977" y1="21.3252" x2="51.5977" y2="67.8711" gradientUnits="userSpaceOnUse">
<stop stop-color="#FFD5B7"/>
<stop offset="1" stop-color="#FFAB6D"/>
</linearGradient>
</defs>
</svg>
